<?xml version="1.0" encoding="UTF-8" standalone="no"?>
<!DOCTYPE svg PUBLIC "-//W3C//DTD SVG 1.1//EN"
 "http://www.w3.org/Graphics/SVG/1.1/DTD/svg11.dtd">
<!-- Generated by graphviz version 2.40.1 (20161225.0304)
 -->
<!-- Title: G Pages: 1 -->
<svg width="503pt" height="332pt"
 viewBox="0.00 0.00 502.82 332.00" xmlns="http://www.w3.org/2000/svg" xmlns:xlink="http://www.w3.org/1999/xlink">
<g id="graph0" class="graph" transform="scale(1 1) rotate(0) translate(4 328)">
<title>G</title>
<polygon fill="#ffffff" stroke="transparent" points="-4,4 -4,-328 498.8177,-328 498.8177,4 -4,4"/>
<!-- 2018 crate A -->
<g id="node1" class="node">
<title>2018 crate A</title>
<ellipse fill="none" stroke="#000000" cx="60.9088" cy="-306" rx="60.8178" ry="18"/>
<text text-anchor="middle" x="60.9088" y="-301.8" font-family="Times,serif" font-size="14.00" fill="#000000">2018 crate A</text>
</g>
<!-- rustc -->
<g id="node2" class="node">
<title>rustc</title>
<ellipse fill="none" stroke="#000000" cx="60.9088" cy="-234" rx="29.6127" ry="18"/>
<text text-anchor="middle" x="60.9088" y="-229.8" font-family="Times,serif" font-size="14.00" fill="#000000">rustc</text>
</g>
<!-- 2018 crate A&#45;&gt;rustc -->
<g id="edge1" class="edge">
<title>2018 crate A&#45;&gt;rustc</title>
<path fill="none" stroke="#000000" d="M60.9088,-287.8314C60.9088,-280.131 60.9088,-270.9743 60.9088,-262.4166"/>
<polygon fill="#000000" stroke="#000000" points="64.4089,-262.4132 60.9088,-252.4133 57.4089,-262.4133 64.4089,-262.4132"/>
</g>
<!-- metadata -->
<g id="node3" class="node">
<title>metadata</title>
<ellipse fill="none" stroke="#000000" cx="60.9088" cy="-162" rx="45.7829" ry="18"/>
<text text-anchor="middle" x="60.9088" y="-157.8" font-family="Times,serif" font-size="14.00" fill="#000000">metadata</text>
</g>
<!-- rustc&#45;&gt;metadata -->
<g id="edge2" class="edge">
<title>rustc&#45;&gt;metadata</title>
<path fill="none" stroke="#000000" d="M60.9088,-215.8314C60.9088,-208.131 60.9088,-198.9743 60.9088,-190.4166"/>
<polygon fill="#000000" stroke="#000000" points="64.4089,-190.4132 60.9088,-180.4133 57.4089,-190.4133 64.4089,-190.4132"/>
</g>
<!-- rustc3 -->
<g id="node8" class="node">
<title>rustc3</title>
<ellipse fill="none" stroke="#000000" cx="122.9088" cy="-90" rx="29.6127" ry="18"/>
<text text-anchor="middle" x="122.9088" y="-85.8" font-family="Times,serif" font-size="14.00" fill="#000000">rustc</text>
</g>
<!-- metadata&#45;&gt;rustc3 -->
<g id="edge7" class="edge">
<title>metadata&#45;&gt;rustc3</title>
<path fill="none" stroke="#000000" d="M75.602,-144.937C83.5135,-135.7494 93.4061,-124.2613 102.0967,-114.1689"/>
<polygon fill="#000000" stroke="#000000" points="104.8749,-116.3065 108.7479,-106.4449 99.5705,-111.7388 104.8749,-116.3065"/>
</g>
<!-- 2015 crate B -->
<g id="node4" class="node">
<title>2015 crate B</title>
<ellipse fill="none" stroke="#000000" cx="308.9088" cy="-306" rx="60.2556" ry="18"/>
<text text-anchor="middle" x="308.9088" y="-301.8" font-family="Times,serif" font-size="14.00" fill="#000000">2015 crate B</text>
</g>
<!-- rustc2 -->
<g id="node5" class="node">
<title>rustc2</title>
<ellipse fill="none" stroke="#000000" cx="308.9088" cy="-234" rx="29.6127" ry="18"/>
<text text-anchor="middle" x="308.9088" y="-229.8" font-family="Times,serif" font-size="14.00" fill="#000000">rustc</text>
</g>
<!-- 2015 crate B&#45;&gt;rustc2 -->
<g id="edge3" class="edge">
<title>2015 crate B&#45;&gt;rustc2</title>
<path fill="none" stroke="#000000" d="M308.9088,-287.8314C308.9088,-280.131 308.9088,-270.9743 308.9088,-262.4166"/>
<polygon fill="#000000" stroke="#000000" points="312.4089,-262.4132 308.9088,-252.4133 305.4089,-262.4133 312.4089,-262.4132"/>
</g>
<!-- metadata2 -->
<g id="node6" class="node">
<title>metadata2</title>
<ellipse fill="none" stroke="#000000" cx="308.9088" cy="-162" rx="45.7829" ry="18"/>
<text text-anchor="middle" x="308.9088" y="-157.8" font-family="Times,serif" font-size="14.00" fill="#000000">metadata</text>
</g>
<!-- rustc2&#45;&gt;metadata2 -->
<g id="edge4" class="edge">
<title>rustc2&#45;&gt;metadata2</title>
<path fill="none" stroke="#000000" d="M308.9088,-215.8314C308.9088,-208.131 308.9088,-198.9743 308.9088,-190.4166"/>
<polygon fill="#000000" stroke="#000000" points="312.4089,-190.4132 308.9088,-180.4133 305.4089,-190.4133 312.4089,-190.4132"/>
</g>
<!-- rustc4 -->
<g id="node11" class="node">
<title>rustc4</title>
<ellipse fill="none" stroke="#000000" cx="370.9088" cy="-90" rx="29.6127" ry="18"/>
<text text-anchor="middle" x="370.9088" y="-85.8" font-family="Times,serif" font-size="14.00" fill="#000000">rustc</text>
</g>
<!-- metadata2&#45;&gt;rustc4 -->
<g id="edge10" class="edge">
<title>metadata2&#45;&gt;rustc4</title>
<path fill="none" stroke="#000000" d="M323.602,-144.937C331.5135,-135.7494 341.4061,-124.2613 350.0967,-114.1689"/>
<polygon fill="#000000" stroke="#000000" points="352.8749,-116.3065 356.7479,-106.4449 347.5705,-111.7388 352.8749,-116.3065"/>
</g>
<!-- 2015 crate C -->
<g id="node7" class="node">
<title>2015 crate C</title>
<ellipse fill="none" stroke="#000000" cx="184.9088" cy="-162" rx="60.2556" ry="18"/>
<text text-anchor="middle" x="184.9088" y="-157.8" font-family="Times,serif" font-size="14.00" fill="#000000">2015 crate C</text>
</g>
<!-- 2015 crate C&#45;&gt;rustc3 -->
<g id="edge5" class="edge">
<title>2015 crate C&#45;&gt;rustc3</title>
<path fill="none" stroke="#000000" d="M169.583,-144.2022C161.6603,-135.0017 151.8841,-123.6487 143.3293,-113.7141"/>
<polygon fill="#000000" stroke="#000000" points="145.9665,-111.4128 136.7891,-106.119 140.6621,-115.9805 145.9665,-111.4128"/>
</g>
<!-- metadata3 -->
<g id="node9" class="node">
<title>metadata3</title>
<ellipse fill="none" stroke="#000000" cx="122.9088" cy="-18" rx="45.7829" ry="18"/>
<text text-anchor="middle" x="122.9088" y="-13.8" font-family="Times,serif" font-size="14.00" fill="#000000">metadata</text>
</g>
<!-- rustc3&#45;&gt;metadata3 -->
<g id="edge6" class="edge">
<title>rustc3&#45;&gt;metadata3</title>
<path fill="none" stroke="#000000" d="M122.9088,-71.8314C122.9088,-64.131 122.9088,-54.9743 122.9088,-46.4166"/>
<polygon fill="#000000" stroke="#000000" points="126.4089,-46.4132 122.9088,-36.4133 119.4089,-46.4133 126.4089,-46.4132"/>
</g>
<!-- 2018 crate D -->
<g id="node10" class="node">
<title>2018 crate D</title>
<ellipse fill="none" stroke="#000000" cx="433.9088" cy="-162" rx="60.8178" ry="18"/>
<text text-anchor="middle" x="433.9088" y="-157.8" font-family="Times,serif" font-size="14.00" fill="#000000">2018 crate D</text>
</g>
<!-- 2018 crate D&#45;&gt;rustc4 -->
<g id="edge8" class="edge">
<title>2018 crate D&#45;&gt;rustc4</title>
<path fill="none" stroke="#000000" d="M418.6583,-144.5708C410.6126,-135.3758 400.6193,-123.9548 391.8574,-113.9413"/>
<polygon fill="#000000" stroke="#000000" points="394.3744,-111.5027 385.1553,-106.2817 389.1064,-116.1123 394.3744,-111.5027"/>
</g>
<!-- metadata4 -->
<g id="node12" class="node">
<title>metadata4</title>
<ellipse fill="none" stroke="#000000" cx="370.9088" cy="-18" rx="45.7829" ry="18"/>
<text text-anchor="middle" x="370.9088" y="-13.8" font-family="Times,serif" font-size="14.00" fill="#000000">metadata</text>
</g>
<!-- rustc4&#45;&gt;metadata4 -->
<g id="edge9" class="edge">
<title>rustc4&#45;&gt;metadata4</title>
<path fill="none" stroke="#000000" d="M370.9088,-71.8314C370.9088,-64.131 370.9088,-54.9743 370.9088,-46.4166"/>
<polygon fill="#000000" stroke="#000000" points="374.4089,-46.4132 370.9088,-36.4133 367.4089,-46.4133 374.4089,-46.4132"/>
</g>
</g>
</svg>
